:FULLY-SPECIFIED
:DEGREES
117
root -2.90492 16.2782 -36.1028 3.65213 0.888108 -2.90963
lfemur -24.0574 6.78189 -8.14592
ltibia 49.1316
lfoot -24.0721 0.266671
ltoes -9.84579
rfemur -23.8395 -7.66814 14.6271
rtibia 51.175
rfoot -27.886 1.82206
rtoes -8.4631
lowerback 7.35799 1.93553 -1.69455
upperback -3.69856 2.51419 1.31665
thorax -8.1704 1.3615 1.98002
lowerneck -3.47706 -3.9374 -6.56117
upperneck 6.83867 -5.31553 6.10183
head 3.24562 -2.61421 2.98696
lclavicle 2.28913e-14 1.31198e-14
lhumerus -26.4427 -2.05265 89.0283
lradius 24.4427
lwrist -31.2041
lhand -28.2872 29.9699
lfingers 7.12502
lthumb -1.6633 59.9432
rclavicle 2.28913e-14 1.31198e-14
rhumerus -32.2734 1.95454 -79.7912
rradius 30.3612
rwrist 3.21333
rhand -19.7341 -27.1614
rfingers 7.12502
rthumb 6.59651 -57.0386
118
root -2.90487 16.2765 -36.1018 3.63825 0.916002 -2.91186
lfemur -24.0646 6.79677 -8.14191
ltibia 49.1596
lfoot -24.0905 0.261653
ltoes -9.91707
rfemur -23.8323 -7.67926 14.6297
rtibia 51.2062
rfoot -27.9105 1.745
rtoes -8.67546
lowerback 7.33298 1.91654 -1.69626
upperback -3.67713 2.48977 1.33146
thorax -8.13222 1.34968 2.00128
lowerneck -3.49082 -3.93354 -6.60093
upperneck 6.83556 -5.30846 6.1218
head 3.24919 -2.61093 3.00161
lclavicle 2.22592e-14 1.63997e-14
lhumerus -26.417 -2.0148 89.044
lradius 24.4693
lwrist -31.1704
lhand -28.31 30.0641
lfingers 7.12502
lthumb -1.68534 60.0372
rclavicle 2.22592e-14 1.63997e-14
rhumerus -32.2178 1.9789 -79.7751
rradius 30.2973
rwrist 3.24443
rhand -19.7629 -27.1847
rfingers 7.12502
rthumb 6.56871 -57.0628
119
root -2.90476 16.2744 -36.1019 3.60977 0.93527 -2.88631
lfemur -24.0527 6.78118 -8.16671
ltibia 49.1856
lfoot -24.1039 0.206722
ltoes -9.7766
rfemur -23.8062 -7.68873 14.5934
rtibia 51.2423
rfoot -27.9271 1.73571
rtoes -8.63358
lowerback 7.36604 1.91799 -1.70781
upperback -3.66634 2.4883 1.30926
thorax -8.13921 1.34876 1.98369
lowerneck -3.48598 -3.95532 -6.578
upperneck 6.80456 -5.33988 6.14248
head 3.23983 -2.6253 3.0029
lclavicle 2.60361e-15 -9.44227e-15
lhumerus -26.4038 -2.10679 89.0557
lradius 24.4812
lwrist -31.1255
lhand -28.3411 29.9251
lfingers 7.12502
lthumb -1.71538 59.8979
rclavicle 2.60361e-15 -9.44227e-15
rhumerus -32.2129 1.91872 -79.7708
rradius 30.2643
rwrist 3.28598
rhand -19.7647 -27.225
rfingers 7.12502
rthumb 6.56693 -57.1032
120
root -2.90532 16.2721 -36.102 3.60715 0.954598 -2.86201
lfemur -24.0658 6.78373 -8.19269
ltibia 49.2114
lfoot -24.1277 0.226695
ltoes -9.85093
rfemur -23.8172 -7.69893 14.5659
rtibia 51.2773
rfoot -27.9607 1.73429
rtoes -8.64238
lowerback 7.36201 1.91045 -1.74773
upperback -3.66458 2.47393 1.30922
thorax -8.13612 1.34386 2.00833
lowerneck -3.4506 -3.95629 -6.58561
upperneck 6.77908 -5.34194 6.14542
head 3.22489 -2.62698 3.0056
lclavicle 1.0885e-14 4.47266e-15
lhumerus -26.4045 -2.11778 89.0649
lradius 24.4971
lwrist -31.0824
lhand -28.3082 30.1168
lfingers 7.12502
lthumb -1.68353 60.0899
rclavicle 1.0885e-14 4.47266e-15
rhumerus -32.2264 1.9316 -79.7584
rradius 30.2532
rwrist 3.28201
rhand -19.7568 -27.2907
rfingers 7.12502
rthumb 6.57456 -57.1687
121
root -2.90542 16.2697 -36.1015 3.58342 0.964287 -2.85205
lfemur -24.0503 6.78012 -8.19871
ltibia 49.2377
lfoot -24.1487 0.231651
ltoes -9.90587
rfemur -23.8049 -7.70274 14.5523
rtibia 51.3125
rfoot -27.9908 1.71415
rtoes -8.63162
lowerback 7.37492 1.90741 -1.75839
upperback -3.66343 2.46803 1.30285
thorax -8.14228 1.34136 2.00809
lowerneck -3.40102 -3.96108 -6.62394
upperneck 6.75549 -5.35251 6.2057
head 3.21232 -2.63214 3.03392
lclavicle 8.59511e-15 1.2424e-14
lhumerus -26.4375 -2.12887 89.0631
lradius 24.5335
lwrist -31.0736
lhand -28.3171 30.1965
lfingers 7.12502
lthumb -1.69221 60.1695
rclavicle 8.59511e-15 1.2424e-14
rhumerus -32.239 1.90656 -79.7525
rradius 30.2275
rwrist 3.30359
rhand -19.7755 -27.2867
rfingers 7.12502
rthumb 6.55655 -57.1653
122
root -2.9056 16.2684 -36.1014 3.57392 0.971372 -2.85728
lfemur -24.063 6.79429 -8.19158
ltibia 49.2612
lfoot -24.1576 0.214447
ltoes -9.90237
rfemur -23.807 -7.68268 14.5617
rtibia 51.3399
rfoot -27.9952 1.63875
rtoes -8.67914
lowerback 7.39409 1.90531 -1.75552
upperback -3.66112 2.46511 1.30091
thorax -8.15058 1.33972 2.00433
lowerneck -3.42735 -3.96375 -6.62275
upperneck 6.76369 -5.35568 6.21442
head 3.22074 -2.63299 3.0363
lclavicle 3.3899e-14 1.63997e-14
lhumerus -26.4415 -2.13581 89.0601
lradius 24.5481
lwrist -31.0749
lhand -28.3484 30.145
lfingers 7.12502
lthumb -1.72245 60.1178
rclavicle 3.3899e-14 1.63997e-14
rhumerus -32.2179 1.87227 -79.7431
rradius 30.1743
rwrist 3.34355
rhand -19.8387 -27.046
rfingers 7.12502
rthumb 6.49555 -56.9264
123
root -2.90572 16.2669 -36.1007 3.56031 0.986797 -2.86023
lfemur -24.0586 6.77783 -8.18452
ltibia 49.2879
lfoot -24.1762 0.187695
ltoes -9.76541
rfemur -23.792 -7.68716 14.5602
rtibia 51.3683
rfoot -28.0058 1.64312
rtoes -8.64458
lowerback 7.3951 1.89407 -1.75445
upperback -3.66216 2.45023 1.30209
thorax -8.1515 1.33244 2.00712
lowerneck -3.3898 -3.97036 -6.61818
upperneck 6.74078 -5.36458 6.19455
head 3.20528 -2.63851 3.02844
lclavicle 1.17306e-14 5.96354e-15
lhumerus -26.4687 -2.13389 89.0526
lradius 24.5729
lwrist -31.0271
lhand -28.1811 30.3409
lfingers 7.12502
lthumb -1.56084 60.3149
rclavicle 1.17306e-14 5.96354e-15
rhumerus -32.2378 1.87597 -79.7456
rradius 30.1789
rwrist 3.31642
rhand -19.8139 -26.9631
rfingers 7.12502
rthumb 6.51952 -56.8428
124
root -2.90554 16.2662 -36.1007 3.57132 1.00312 -2.85998
lfemur -24.0866 6.78102 -8.18558
ltibia 49.3096
lfoot -24.1956 0.184338
ltoes -9.82189
rfemur -23.8174 -7.71498 14.565
rtibia 51.3949
rfoot -28.0151 1.61284
rtoes -8.75016
lowerback 7.3767 1.8803 -1.74109
upperback -3.65654 2.43282 1.29483
thorax -8.13277 1.32281 1.99512
lowerneck -3.41622 -3.97457 -6.62759
upperneck 6.75647 -5.36919 6.19975
head 3.2167 -2.64048 3.03154
lclavicle 4.06033e-14 1.74931e-14
lhumerus -26.4575 -2.08239 89.0183
lradius 24.5485
lwrist -31.1027
lhand -28.2957 30.0613
lfingers 7.12502
lthumb -1.67152 60.0345
rclavicle 4.06033e-14 1.74931e-14
rhumerus -32.1938 1.84964 -79.7523
rradius 30.1324
rwrist 3.33633
rhand -19.8044 -27.2025
rfingers 7.12502
rthumb 6.52866 -57.0818
125
root -2.90466 16.2642 -36.0999 3.55847 1.01582 -2.8401
lfemur -24.0835 6.7648 -8.2087
ltibia 49.342
lfoot -24.2094 0.182495
ltoes -9.74909
rfemur -23.8065 -7.72794 14.5297
rtibia 51.4194
rfoot -28.0405 1.66081
rtoes -8.58162
lowerback 7.38275 1.87412 -1.75313
upperback -3.65361 2.42277 1.2901
thorax -8.13294 1.31836 1.99822
lowerneck -3.41987 -3.97492 -6.64489
upperneck 6.76651 -5.36927 6.2061
head 3.22188 -2.64073 3.03704
lclavicle 4.16594e-15 7.15625e-15
lhumerus -26.4586 -2.06476 89.0137
lradius 24.5378
lwrist -31.0822
lhand -28.3285 30.1013
lfingers 7.12502
lthumb -1.70315 60.0742
rclavicle 4.16594e-15 7.15625e-15
rhumerus -32.2182 1.84994 -79.7456
rradius 30.152
rwrist 3.32803
rhand -19.9914 -27.0471
rfingers 7.12502
rthumb 6.34807 -56.932
126
root -2.90543 16.2626 -36.0995 3.54904 1.00145 -2.8257
lfemur -24.0884 6.78985 -8.22143
ltibia 49.3681
lfoot -24.2147 0.218449
ltoes -9.86192
rfemur -23.8168 -7.69859 14.5155
rtibia 51.4461
rfoot -28.0345 1.64093
rtoes -8.61678
lowerback 7.38414 1.88462 -1.77358
upperback -3.65138 2.43377 1.27896
thorax -8.13234 1.32445 1.99631
lowerneck -3.39781 -3.98958 -6.63342
upperneck 6.75304 -5.38981 6.19786
head 3.21371 -2.65122 3.03122
lclavicle 1.80568e-14 3.77691e-15
lhumerus -26.4733 -2.09376 89.0072
lradius 24.5479
lwrist -31.031
lhand -28.2683 30.2181
lfingers 7.12502
lthumb -1.64503 60.1915
rclavicle 1.80568e-14 3.77691e-15
rhumerus -32.2095 1.79129 -79.7306
rradius 30.1323
rwrist 3.34095
rhand -19.9944 -26.9916
rfingers 7.12502
rthumb 6.34523 -56.8766
127
root -2.90432 16.2606 -36.0992 3.54014 1.00824 -2.87495
lfemur -24.1018 6.80744 -8.16825
ltibia 49.4017
lfoot -24.2367 0.187883
ltoes -9.84498
rfemur -23.8137 -7.71402 14.5648
rtibia 51.4628
rfoot -28.051 1.60746
rtoes -8.72488
lowerback 7.37103 1.86457 -1.71909
upperback -3.65786 2.41451 1.29967
thorax -8.12912 1.31283 1.99071
lowerneck -3.34554 -3.96584 -6.63511
upperneck 6.74257 -5.35885 6.17827
head 3.19702 -2.63735 3.0268
lclavicle -1.084e-15 -5.96354e-16
lhumerus -26.5129 -2.03908 88.9887
lradius 24.5316
lwrist -31.065
lhand -28.293 30.2308
lfingers 7.12502
lthumb -1.66891 60.204
rclavicle -1.084e-15 -5.96354e-16
rhumerus -32.2332 1.81197 -79.7333
rradius 30.1326
rwrist 3.34876
rhand -19.984 -26.9757
rfingers 7.12502
rthumb 6.35528 -56.8603
128
root -2.90418 16.259 -36.0988 3.53503 1.00398 -2.83904
lfemur -24.1062 6.80611 -8.21073
ltibia 49.4275
lfoot -24.246 0.234721
ltoes -9.8609
rfemur -23.8214 -7.73479 14.5225
rtibia 51.4875
rfoot -28.0642 1.60122
rtoes -8.84104
lowerback 7.39018 1.86975 -1.7644
upperback -3.6423 2.41599 1.29634
thorax -8.12555 1.31567 2.01209
lowerneck -3.42894 -3.97052 -6.64942
upperneck 6.75945 -5.36011 6.17793
head 3.21944 -2.63705 3.02835
lclavicle 2.05781e-14 5.76476e-15
lhumerus -26.4806 -1.99408 88.9878
lradius 24.5152
lwrist -31.0984
lhand -28.2942 30.2195
lfingers 7.12502
lthumb -1.67009 60.1928
rclavicle 2.05781e-14 5.76476e-15
rhumerus -32.2156 1.81722 -79.7219
rradius 30.1613
rwrist 3.32854
rhand -20.1122 -26.888
rfingers 7.12502
rthumb 6.23153 -56.7763
129
root -2.90318 16.2578 -36.0989 3.51412 1.01627 -2.84177
lfemur -24.099 6.78664 -8.20652
ltibia 49.4635
lfoot -24.2709 0.223603
ltoes -9.78434
rfemur -23.8022 -7.77117 14.5147
rtibia 51.501
rfoot -28.0722 1.62624
rtoes -8.8147
lowerback 7.41607 1.86579 -1.74262
upperback -3.64534 2.41215 1.28906
thorax -8.14234 1.3125 1.99194
lowerneck -3.39064 -3.96718 -6.64344
upperneck 6.74068 -5.35735 6.17647
head 3.20513 -2.63616 3.02724
lclavicle -1.39343e-14 -6.55989e-15
lhumerus -26.4895 -1.98324 88.9663
lradius 24.493
lwrist -31.0811
lhand -28.2069 30.3164
lfingers 7.12502
lthumb -1.58575 60.2903
rclavicle -1.39343e-14 -6.55989e-15
rhumerus -32.2306 1.78617 -79.719
rradius 30.168
rwrist 3.34408
rhand -20.0983 -26.8368
rfingers 7.12502
rthumb 6.24488 -56.7248
